PathFileType	4	(X/Y/Z)	pose_F01_0-96.trc
DataRate	CameraRate	NumFrames	NumMarkers	Units	OrigDataRate	OrigDataStartFrame	OrigNumFrames
30	30	10	21	m	30	32	96
Frame#	Time	CHip			RHip			RKnee			RAnkle			RBigToe			RSmallToe			RHeel			LHip			LKnee			LAnkle			LBigToe			LSmallToe			LHeel			Neck			Nose			RShoulder			RElbow			RWrist			LShoulder			LElbow			LWrist			
		X1	Y1	Z1	X2	Y2	Z2	X3	Y3	Z3	X4	Y4	Z4	X5	Y5	Z5	X6	Y6	Z6	X7	Y7	Z7	X8	Y8	Z8	X9	Y9	Z9	X10	Y10	Z10	X11	Y11	Z11	X12	Y12	Z12	X13	Y13	Z13	X14	Y14	Z14	X15	Y15	Z15	X16	Y16	Z16	X17	Y17	Z17	X18	Y18	Z18	X19	Y19	Z19	X20	Y20	Z20	X21	Y21	Z21	
32	1.0666666666666667	-0.24054676298263553	1.8797905104080828	-0.5325774369462394	-0.2558364404898418	1.8776691945508492	-0.45873927643491974																-0.2219396223973507	1.883627880885387	-0.6001366628634743	-0.226329040830505	1.7286890647387418	-0.6184976157330442													-0.24669722671344155	2.056260905419357	-0.5654384553001045	-0.23193787604293217	2.128476577437334	-0.536954513378407	-0.26975499066600217	2.0528447366573213	-0.4679989875685717	-0.278343979620062	1.967171501159517	-0.4398619360145862	-0.27908960016953416	1.881818295088288	-0.3968937139998324	-0.2211297167972797	2.0627391092910456	-0.6656467086529372	-0.21075243093182747	1.969810118511375	-0.6866042708654937	-0.20183904470412092	1.8788116261201024	-0.6784341932294999
33	1.1	-0.24156885145258383	1.8799208068821298	-0.5357256791723253	-0.2580640292316917	1.8769688560719673	-0.46504911671751936																-0.2228099625405218	1.8828168895321828	-0.6030036096447489	-0.226329040830505	1.7286890647387418	-0.6184976157330442													-0.24665271323648605	2.057483689671809	-0.5653420739040959	-0.22998819762980047	2.129931641078472	-0.5396538486541312	-0.26966546141868225	2.054036984887718	-0.4678507240367267	-0.2795698849956439	1.9627461452598485	-0.4432289305410009	-0.2790782941745366	1.8753306226092628	-0.3969525658589618	-0.22107167668504651	2.0640476047126413	-0.665587902919152	-0.210834796218211	1.9710924155872402	-0.6869674188384336	-0.201911552724509	1.8823189338812472	-0.6789504051514477
34	1.1333333333333333	-0.24153014248030405	1.880839945292556	-0.535935111701323	-0.25905739898262986	1.8796176759013943	-0.46860924559417355																-0.22775292409252215	1.8839788375490596	-0.6019110080458837	-0.226329040830505	1.7286890647387418	-0.6184976157330442													-0.24946203138562986	2.061585229917498	-0.5664432935489753	-0.23279235491158232	2.1337355233961253	-0.5416793907763184	-0.27155179318150646	2.0566298894796073	-0.46628497166976884	-0.2824334460698889	1.9635643694007383	-0.43624507851819877	-0.27968287254977875	1.8781193582976592	-0.3920284256101177	-0.2220432581879694	2.0669175582281816	-0.6694379002056257	-0.213670366364538	1.9717570706106415	-0.6874140202100442	-0.20283234143249904	1.8839286940458033	-0.6735706712844557
35	1.1666666666666667	-0.24558994899203876	1.8862268735005139	-0.5410473984067835	-0.2632129983967528	1.8844005010204652	-0.473982759196501																-0.2286276396369215	1.888532267335784	-0.6143602243876345	-0.226329040830505	1.7286890647387418	-0.6184976157330442													-0.25037444810340886	2.067184924111071	-0.5710471441033693	-0.23164462511447756	2.1399261958860354	-0.547550187404438	-0.2734526856759287	2.0622427439030333	-0.4734408400749584	-1.7530720747390853	1.885697313228783	1.1723168016288215	-0.28389975262004236	1.8972431567869472	-0.3858443724949617	-0.2228621553094442	2.070689107107687	-0.6732715310761314	-0.21232875330827328	1.978362329180269	-0.6942281721962702	-0.18954382965418903	1.8844784729469493	-0.6641167266313115
36	1.2	-0.24558667987454266	1.8950935893127598	-0.5507966255203961	-0.26214430914773207	1.8946483629996906	-0.4810309195442582																-0.229286702587817	1.8967423084107546	-0.6186772449184343	-0.226329040830505	1.7286890647387418	-0.6184976157330442													-0.25112402544967477	2.072173948893237	-0.5831114811343044	-0.23349163155564645	2.1428102315608117	-0.5541635570786761	-0.2754701878814917	2.0677821210676983	-0.488930636309477	-0.290353462543112	1.981263706448857	-0.4557750346510673	-0.28862221258369414	1.905419243130039	-0.37747215733862405	-0.22359860883491492	2.0782030239434905	-0.6772441619872628	-0.2092064970283675	1.9957037056275655	-0.7070044285205693	-0.17898452373532847	1.9218883157003732	-0.6654461907683352
37	1.2333333333333334	-0.24531395018580068	1.9005291198209027	-0.5630892122603189	-0.26311741816048667	1.8973728939350805	-0.4962033326648349																-0.22606728232074355	1.9022895232097532	-0.6299098493234349	-0.226329040830505	1.7286890647387418	-0.6184976157330442													-0.2527012463401303	2.0743084371359535	-0.5975982464413964	-0.23719513322912278	2.1445842928339047	-0.5659930211957642	-0.28056914388821497	2.067968526695299	-0.5123335326899496	-1.6991513843493748	1.8850715301105154	1.0660849486601671	-0.2883851168621444	1.9132911835687256	-0.36362886789812177	-0.22316218925186299	2.0797699969735386	-0.6854261843696376	-0.2021824613311871	2.0034251430465897	-0.714445537130902	-0.16133570252514723	1.943988264014964	-0.6530857647637476
38	1.2666666666666666	-0.24614089025201072	1.8982743386678815	-0.5745980527187562	-0.2621986563955181	1.8920096198538032	-0.5096856616349321																-0.22764711869196322	1.9019401962701725	-0.6445278566843026	-0.226329040830505	1.7286890647387418	-0.6184976157330442													-0.24944599494434008	2.0702084513593575	-0.6125525753379516	-0.2382905798155826	2.138480710601981	-0.5758582651111808	-0.27476450867243685	2.0615681605210234	-0.5258825240897143	-1.6856505178293375	1.8773942647607027	1.0424106942316345	-0.29440476718566627	1.919344864617134	-0.3670148751049768	-0.22652492434218377	2.0790702122131886	-0.6971875200957156	-0.19502342839730083	2.0142439128216254	-0.7220726043179038	-0.1466194902926248	1.9731946015360111	-0.6478131202756915
39	1.3	-0.24833162518322852	1.8863211857987465	-0.5882827608197027	-0.2636838530966505	1.881317676955037	-0.5203516357015929																-0.22851671558290185	1.887955994492247	-0.6549867292716738	-0.226329040830505	1.7286890647387418	-0.6184976157330442													-0.2513711353128689	2.064845031047527	-0.6180664827059194	-0.24217955480256959	2.133172177547802	-0.5874495212721531	-0.2741162217109065	2.056244933391414	-0.5310555603431072	-1.6402903642552604	1.8792853982923121	0.9497052681475078	-0.30453911362598357	1.9204867572989228	-0.3658201711007074	-0.2241472241048753	2.075702451678591	-0.7074718180660445	-0.19538799416790778	2.0212975967110656	-0.7146965530802994	-0.1548634586210465	2.0127001833620897	-0.6263281145150573
40	1.3333333333333333	-0.2529150565785433	1.8772305946598074	-0.5915171730395734	-0.2683847779900218	1.8733250465972584	-0.5234338598795977																-0.23095496839575985	1.8817327972314488	-0.6606475235929238	-0.226329040830505	1.7286890647387418	-0.6184976157330442													-0.2526206738434007	2.0586538530213794	-0.6205444571355992	-0.2421109870284079	2.1298093362527157	-0.5948390915026752	-0.2782907626346332	2.051910637011935	-0.5349318304760481	-0.29716025455360495	1.9626816261948228	-0.48870954062193167	-0.30376669425771113	1.9154772354632723	-0.35571500932269173	-0.22519090490670818	2.0668053973924962	-0.7090849223240991	-0.19117492802095495	2.0081368990799984	-0.7163252888325509	-0.15378854288139893	2.0251674565142226	-0.6257521003957779
41	1.3666666666666667	-0.25566555281600034	1.872039112220454	-0.6005025377233125	-0.2711924155456437	1.8661152727361594	-0.5324239335163368																-0.23446379104159903	1.8756789993042287	-0.6728548888842469	-0.226329040830505	1.7286890647387418	-0.6184976157330442													-0.2547966052686112	2.0488972612023164	-0.6164008678855141	-0.24353012755699463	2.119760278406081	-0.5971045386729323	-0.27943215664355975	2.0427886106570523	-0.5273057906547544	-0.29797964861858983	1.9537541663157907	-0.48163589589767986	-0.30780228062659337	1.902513223436407	-0.35808459888644534	-0.22852919674236286	2.055699494636108	-0.70821941223545	-0.19320660721956967	1.9939101690829948	-0.7098069080580698	-0.16544547146319352	2.0270728002502447	-0.6283505612318413
